<!-- icon666.com - MILLIONS vector ICONS FREE --><svg fill="none" viewBox="0 0 120 120" xmlns="http://www.w3.org/2000/svg"><path d="m55.8756 15.0179c1.986-2.8978 6.2627-2.8978 8.2487 0l14.6201 21.3325c.6501.9487 1.6075 1.6442 2.7106 1.9694l24.806 7.3124c3.37.9933 4.692 5.0607 2.549 7.845l-15.7703 20.4966c-.7013.9115-1.067 2.0369-1.0354 3.1865l.711 25.8517c.0966 3.512-3.3633 6.026-6.6733 4.849l-24.3668-8.6653c-1.0836-.3853-2.2669-.3853-3.3505 0l-24.3668 8.6653c-3.3101 1.177-6.7699-1.337-6.6733-4.849l.711-25.8517c.0316-1.1496-.3341-2.275-1.0354-3.1865l-15.7705-20.4966c-2.14233-2.7843-.8208-6.8517 2.549-7.845l24.8062-7.3124c1.1031-.3252 2.0604-1.0207 2.7106-1.9694z" fill="#ffba33"></path><path d="m67.9039 97.7784c2.4877.8797 5.0961-.9693 5.0961-3.6122v-14.505c0-4.2312-3.4237-7.6612-7.6471-7.6612h-10.7058c-4.2234 0-7.6471 3.43-7.6471 7.6612v14.505c0 2.6429 2.6084 4.4919 5.0961 3.6122l6.6314-2.3448c.8234-.2912 1.7216-.2912 2.545 0z" fill="#027ef1" style="fill: rgb(25, 118, 107);"></path><path d="m70 64c0 5.5228-4.4772 10-10 10s-10-4.4772-10-10 4.4772-10 10-10 10 4.4772 10 10z" fill="#ffd482"></path><path clip-rule="evenodd" d="m64.1243 15.0179c-1.986-2.8978-6.2627-2.8978-8.2487 0l-14.6201 21.3325c-.6502.9487-1.6075 1.6442-2.7106 1.9694l-24.8062 7.3124c-3.3698.9933-4.69133 5.0607-2.549 7.845l15.7705 20.4966c.7013.9115 1.067 2.0369 1.0354 3.1865l-.711 25.8517c-.0966 3.512 3.3632 6.026 6.6733 4.849l24.3668-8.6653c1.0836-.3853 2.2669-.3853 3.3505 0l24.3668 8.6653c3.31 1.177 6.7699-1.337 6.6733-4.849l-.711-25.8517c-.0316-1.1496.3341-2.275 1.0354-3.1865l15.7703-20.4966c2.143-2.7843.821-6.8517-2.549-7.845l-24.806-7.3124c-1.1031-.3252-2.0605-1.0207-2.7106-1.9694zm-4.1244 8.1334-12.1454 17.7217c-1.6904 2.4665-4.1794 4.2748-7.0476 5.1203l-20.6075 6.0747 13.1012 17.0274c1.8234 2.3698 2.7742 5.2958 2.6919 8.2849l-.5906 21.4761 7.5981-2.7019v-18.1545c0-3.9042 2.2373-7.2858 5.4998-8.9326-.9576-1.8113-1.4998-3.876-1.4998-6.0674 0-7.1797 5.8203-13 13-13s13 5.8203 13 13c0 2.1914-.5422 4.2561-1.4998 6.0674 3.2625 1.6468 5.4998 5.0284 5.4998 8.9326v18.1545l7.598 2.7019-.5906-21.4761c-.0823-2.9891.8685-5.9151 2.6919-8.2849l13.1012-17.0274-20.6075-6.0747c-2.8682-.8455-5.3572-2.6538-7.0476-5.1203zm-.0141 52.8487h.0142.0142 6.9858c1.1046 0 2 .8954 2 2v14.6928l-4.6733-1.6494c-2.7998-.9882-5.8535-.9882-8.6534 0l-4.6733 1.6494v-14.6928c0-1.1046.8954-2 2-2zm.025-8c2.7565-.0058 4.9892-2.2422 4.9892-5 0-2.7614-2.2386-5-5-5s-5 2.2386-5 5c0 2.7578 2.2327 4.9942 4.9892 5z" fill="#000" fill-rule="evenodd"></path></svg>