<!-- icon666.com - MILLIONS vector ICONS FREE --><svg fill="none" viewBox="0 0 120 120" xmlns="http://www.w3.org/2000/svg"><path d="m97.3409 110c2.5732 0 4.6591-2.549 4.6591-5.694v-6.8338c0-15.7247-10.4297-28.4722-23.2955-28.4722h-35.409c-12.8658 0-23.2955 12.7474-23.2955 28.4722v6.8338c0 3.145 2.0859 5.694 4.6591 5.694z" fill="#099718" style="fill: rgb(25, 118, 107);"></path><path d="m69.8 65c2.3196 0 4.2 1.8804 4.2 4.2v3.8c0 7.1797-5.8203 13-13 13s-13-5.8203-13-13v-3.8c0-2.3196 1.8804-4.2 4.2-4.2z" fill="#ffba33"></path><path d="m63 10c13.8071 0 25 11.1929 25 25v12c0 13.8071-11.1929 25-25 25h-4c-13.8071 0-25-11.1929-25-25v-12c0-13.8071 11.1929-25 25-25z" fill="#ffd482"></path><path d="m90 43.9578c0 1.5517-.7204 3.0154-1.9499 3.9619l-3.9517 3.0422c-.8743.6731-1.9467 1.0381-3.0501 1.0381h-13.1906c-1.2406 0-2.4369-.4612-3.3565-1.2941l-.1447-.131c-1.9051-1.7254-4.8079-1.7254-6.713 0l-.1447.131c-.9195.8329-2.1159 1.2941-3.3565 1.2941h-13.1906c-1.1034 0-2.1758-.365-3.0501-1.0381l-3.9517-3.0422c-1.2295-.9465-1.9499-2.4102-1.9499-3.9619v-10.9578c0-2.7614 2.2386-5 5-5h48c2.7614 0 5 2.2386 5 5z" fill="#ffba33"></path><g fill="#000"><path d="m42 40c0-2.2091 1.7909-4 4-4h6c2.2091 0 4 1.7909 4 4s-1.7909 4-4 4h-6c-2.2091 0-4-1.7909-4-4z" fill="#000"></path><path d="m70 36c-2.2091 0-4 1.7909-4 4s1.7909 4 4 4h6c2.2091 0 4-1.7909 4-4s-1.7909-4-4-4z" fill="#000"></path><path clip-rule="evenodd" d="m34.1754 50.9771c-1.5567-1.4481-3.1754-2.8016-3.1754-5.1315v-15.8456c0-2.7614 2.2386-5 5-5h.0802c3.8578-8.8295 12.6682-15 22.9198-15h4c10.2516 0 19.062 6.1705 22.9198 15h.0802c2.7614 0 5 2.2386 5 5v15.8456c0 2.3299-1.6187 3.6834-3.1754 5.1316-.641 5.4015-3.0041 10.275-6.525 14.056 13.2031.6761 23.7004 11.5956 23.7004 24.9668v15c0 2.761-2.239 5-5 5h-78c-2.7614 0-5-2.239-5-5v-15c0-13.3712 10.4973-24.2907 23.7004-24.9668-3.5209-3.781-5.8841-8.6545-6.525-14.0561zm9.3281 4.0229c2.6679 5.897 8.6031 10 15.4965 10h4c6.8934 0 12.8285-4.103 15.4965-10h-10.2255c-1.3831 0-2.7025-.5816-3.6355-1.6027-1.9526-2.137-5.3184-2.137-7.271 0-.933 1.0211-2.2524 1.6027-3.6355 1.6027zm33.2457-30h-31.4984c3.091-4.2427 8.0981-7 13.7492-7h4c5.6511 0 10.6581 2.7573 13.7492 7zm-20.7492 48h10c0 2.7614-2.2386 5-5 5s-5-2.2386-5-5zm-31 17v12h72v-12c0-9.3888-7.6112-17-17-17h-6c0 7.1797-5.8203 13-13 13s-13-5.8203-13-13h-6c-9.3888 0-17 7.6112-17 17zm16.6456-43-2.6456-2.4611v-11.5389h44v11.5389l-2.6456 2.4611h-10.8326c-4.8588-4.2739-12.1848-4.2739-17.0436 0z" fill-rule="evenodd" fill="#000"></path></g></svg>